<mxfile host="app.diagrams.net" agent="Mozilla/5.0 (Macintosh; Intel Mac OS X 10_15_7) AppleWebKit/537.36 (KHTML, like Gecko) Chrome/131.0.0.0 Safari/537.36" version="26.0.4">
  <diagram name="Page-1" id="-5CBBpcjEC79QHXPA2fV">
    <mxGraphModel dx="1444" dy="1649" grid="1" gridSize="10" guides="1" tooltips="1" connect="1" arrows="1" fold="1" page="1" pageScale="1" pageWidth="1169" pageHeight="827" math="0" shadow="0">
      <root>
        <mxCell id="0" />
        <mxCell id="1" parent="0" />
        <mxCell id="dHwiDsLNK_CMpNOSO1Pw-45" style="edgeStyle=orthogonalEdgeStyle;rounded=0;orthogonalLoop=1;jettySize=auto;html=1;entryX=1;entryY=0.5;entryDx=0;entryDy=0;exitX=0;exitY=0.5;exitDx=0;exitDy=0;fillColor=#dae8fc;strokeColor=#6c8ebf;" parent="1" source="dHwiDsLNK_CMpNOSO1Pw-6" target="dHwiDsLNK_CMpNOSO1Pw-43" edge="1">
          <mxGeometry relative="1" as="geometry">
            <mxPoint x="197.04347826086996" y="520.0000000000002" as="sourcePoint" />
          </mxGeometry>
        </mxCell>
        <mxCell id="dHwiDsLNK_CMpNOSO1Pw-29" style="edgeStyle=orthogonalEdgeStyle;rounded=0;orthogonalLoop=1;jettySize=auto;html=1;fillColor=#dae8fc;strokeColor=#6c8ebf;entryX=0.368;entryY=1.007;entryDx=0;entryDy=0;entryPerimeter=0;" parent="1" source="dHwiDsLNK_CMpNOSO1Pw-3" target="dHwiDsLNK_CMpNOSO1Pw-12" edge="1">
          <mxGeometry relative="1" as="geometry" />
        </mxCell>
        <mxCell id="dHwiDsLNK_CMpNOSO1Pw-3" value="&lt;font face=&quot;Garamond&quot;&gt;&lt;span style=&quot;font-size: 16px;&quot;&gt;Overwhelming online data&lt;/span&gt;&lt;/font&gt;" style="rounded=0;whiteSpace=wrap;html=1;fillColor=#dae8fc;strokeColor=#6c8ebf;" parent="1" vertex="1">
          <mxGeometry x="693" y="510" width="187" height="50" as="geometry" />
        </mxCell>
        <mxCell id="dHwiDsLNK_CMpNOSO1Pw-18" style="edgeStyle=orthogonalEdgeStyle;rounded=0;orthogonalLoop=1;jettySize=auto;html=1;exitX=0.5;exitY=0;exitDx=0;exitDy=0;fillColor=#dae8fc;strokeColor=#6c8ebf;" parent="1" source="dHwiDsLNK_CMpNOSO1Pw-4" target="dHwiDsLNK_CMpNOSO1Pw-3" edge="1">
          <mxGeometry relative="1" as="geometry" />
        </mxCell>
        <mxCell id="dHwiDsLNK_CMpNOSO1Pw-4" value="&lt;font face=&quot;Garamond&quot;&gt;&lt;span style=&quot;font-size: 16px;&quot;&gt;Increasing number of publicly published APIs and Web services&amp;nbsp;&lt;/span&gt;&lt;/font&gt;" style="rounded=0;whiteSpace=wrap;html=1;fillColor=#dae8fc;strokeColor=#6c8ebf;" parent="1" vertex="1">
          <mxGeometry x="693" y="600" width="186" height="70" as="geometry" />
        </mxCell>
        <mxCell id="dHwiDsLNK_CMpNOSO1Pw-5" value="&lt;font face=&quot;Garamond&quot;&gt;&lt;span style=&quot;font-size: 16px;&quot;&gt;Domain experts&#39; limited technical skills in developing web-based solutions&amp;nbsp;&lt;/span&gt;&lt;/font&gt;" style="rounded=0;whiteSpace=wrap;html=1;fillColor=#dae8fc;strokeColor=#6c8ebf;" parent="1" vertex="1">
          <mxGeometry x="19" y="495" width="200" height="80" as="geometry" />
        </mxCell>
        <mxCell id="dHwiDsLNK_CMpNOSO1Pw-41" style="edgeStyle=orthogonalEdgeStyle;rounded=0;orthogonalLoop=1;jettySize=auto;html=1;entryX=0.134;entryY=1.036;entryDx=0;entryDy=0;fillColor=#dae8fc;strokeColor=#6c8ebf;entryPerimeter=0;" parent="1" source="dHwiDsLNK_CMpNOSO1Pw-6" target="dHwiDsLNK_CMpNOSO1Pw-7" edge="1">
          <mxGeometry relative="1" as="geometry" />
        </mxCell>
        <mxCell id="dHwiDsLNK_CMpNOSO1Pw-6" value="&lt;font face=&quot;Garamond&quot;&gt;&lt;span style=&quot;font-size: 16px;&quot;&gt;Developers&#39; limited domain knowledge&lt;/span&gt;&lt;/font&gt;" style="rounded=0;whiteSpace=wrap;html=1;fillColor=#dae8fc;strokeColor=#6c8ebf;" parent="1" vertex="1">
          <mxGeometry x="279" y="375" width="166" height="50" as="geometry" />
        </mxCell>
        <mxCell id="dHwiDsLNK_CMpNOSO1Pw-40" style="edgeStyle=orthogonalEdgeStyle;rounded=0;orthogonalLoop=1;jettySize=auto;html=1;entryX=0.5;entryY=1;entryDx=0;entryDy=0;exitX=0.5;exitY=0;exitDx=0;exitDy=0;fillColor=#dae8fc;strokeColor=#6c8ebf;" parent="1" source="dHwiDsLNK_CMpNOSO1Pw-7" target="dHwiDsLNK_CMpNOSO1Pw-26" edge="1">
          <mxGeometry relative="1" as="geometry" />
        </mxCell>
        <mxCell id="dHwiDsLNK_CMpNOSO1Pw-7" value="&lt;font face=&quot;Garamond&quot;&gt;&lt;span style=&quot;font-size: 16px;&quot;&gt;Limited domain specificity of situational decision- making tools&amp;nbsp;&lt;/span&gt;&lt;/font&gt;" style="rounded=0;whiteSpace=wrap;html=1;fillColor=#dae8fc;strokeColor=#6c8ebf;" parent="1" vertex="1">
          <mxGeometry x="330" y="220" width="241" height="70" as="geometry" />
        </mxCell>
        <mxCell id="dHwiDsLNK_CMpNOSO1Pw-31" style="edgeStyle=orthogonalEdgeStyle;rounded=0;orthogonalLoop=1;jettySize=auto;html=1;fillColor=#dae8fc;strokeColor=#6c8ebf;exitX=0.332;exitY=-0.02;exitDx=0;exitDy=0;exitPerimeter=0;" parent="1" source="dHwiDsLNK_CMpNOSO1Pw-12" target="dHwiDsLNK_CMpNOSO1Pw-25" edge="1">
          <mxGeometry relative="1" as="geometry" />
        </mxCell>
        <mxCell id="dHwiDsLNK_CMpNOSO1Pw-12" value="&lt;div style=&quot;font-size: 16px;&quot;&gt;&lt;font style=&quot;font-size: 16px;&quot; face=&quot;Garamond&quot;&gt;&amp;nbsp;Widening disparity&lt;/font&gt;&lt;/div&gt;&lt;div style=&quot;font-size: 16px;&quot;&gt;&lt;font style=&quot;font-size: 16px;&quot; face=&quot;Garamond&quot;&gt;between online information and the&lt;/font&gt;&lt;/div&gt;&lt;div style=&quot;font-size: 16px;&quot;&gt;&lt;font style=&quot;font-size: 16px;&quot; face=&quot;Garamond&quot;&gt;knowledge necessary for situational decision&lt;/font&gt;&lt;/div&gt;&lt;div style=&quot;font-size: 16px;&quot;&gt;&lt;font style=&quot;font-size: 16px;&quot; face=&quot;Garamond&quot;&gt;&amp;nbsp;making&lt;/font&gt;&lt;/div&gt;" style="rounded=0;whiteSpace=wrap;html=1;fillColor=#dae8fc;strokeColor=#6c8ebf;" parent="1" vertex="1">
          <mxGeometry x="669" y="350" width="320" height="100" as="geometry" />
        </mxCell>
        <mxCell id="dHwiDsLNK_CMpNOSO1Pw-38" style="edgeStyle=orthogonalEdgeStyle;rounded=0;orthogonalLoop=1;jettySize=auto;html=1;entryX=0.25;entryY=1;entryDx=0;entryDy=0;exitX=0.5;exitY=0;exitDx=0;exitDy=0;fillColor=#dae8fc;strokeColor=#6c8ebf;" parent="1" source="dHwiDsLNK_CMpNOSO1Pw-24" target="dHwiDsLNK_CMpNOSO1Pw-26" edge="1">
          <mxGeometry relative="1" as="geometry" />
        </mxCell>
        <mxCell id="dHwiDsLNK_CMpNOSO1Pw-24" value="&lt;font style=&quot;&quot; face=&quot;Garamond&quot;&gt;&lt;span style=&quot;font-size: 16px;&quot;&gt;Poor expressive power&lt;/span&gt;&lt;/font&gt;" style="rounded=0;whiteSpace=wrap;html=1;fillColor=#dae8fc;strokeColor=#6c8ebf;" parent="1" vertex="1">
          <mxGeometry x="36" y="230" width="166" height="50" as="geometry" />
        </mxCell>
        <mxCell id="dHwiDsLNK_CMpNOSO1Pw-39" style="edgeStyle=orthogonalEdgeStyle;rounded=0;orthogonalLoop=1;jettySize=auto;html=1;exitX=0.5;exitY=0;exitDx=0;exitDy=0;entryX=0.75;entryY=1;entryDx=0;entryDy=0;fillColor=#dae8fc;strokeColor=#6c8ebf;" parent="1" source="dHwiDsLNK_CMpNOSO1Pw-25" target="dHwiDsLNK_CMpNOSO1Pw-26" edge="1">
          <mxGeometry relative="1" as="geometry" />
        </mxCell>
        <mxCell id="dHwiDsLNK_CMpNOSO1Pw-25" value="&lt;font style=&quot;&quot; face=&quot;Garamond&quot;&gt;&lt;span style=&quot;font-size: 16px;&quot;&gt;Limited usability&lt;/span&gt;&lt;/font&gt;" style="rounded=0;whiteSpace=wrap;html=1;fillColor=#dae8fc;strokeColor=#6c8ebf;" parent="1" vertex="1">
          <mxGeometry x="692" y="230" width="166" height="50" as="geometry" />
        </mxCell>
        <mxCell id="dHwiDsLNK_CMpNOSO1Pw-49" style="edgeStyle=orthogonalEdgeStyle;rounded=0;orthogonalLoop=1;jettySize=auto;html=1;entryX=0.5;entryY=1;entryDx=0;entryDy=0;exitX=0.75;exitY=0;exitDx=0;exitDy=0;fillColor=#f8cecc;strokeColor=#b85450;" parent="1" source="dHwiDsLNK_CMpNOSO1Pw-26" target="dHwiDsLNK_CMpNOSO1Pw-30" edge="1">
          <mxGeometry relative="1" as="geometry" />
        </mxCell>
        <mxCell id="dHwiDsLNK_CMpNOSO1Pw-50" style="edgeStyle=orthogonalEdgeStyle;rounded=0;orthogonalLoop=1;jettySize=auto;html=1;entryX=0.5;entryY=1;entryDx=0;entryDy=0;fillColor=#f8cecc;strokeColor=#b85450;" parent="1" source="dHwiDsLNK_CMpNOSO1Pw-26" target="dHwiDsLNK_CMpNOSO1Pw-35" edge="1">
          <mxGeometry relative="1" as="geometry" />
        </mxCell>
        <mxCell id="dHwiDsLNK_CMpNOSO1Pw-26" value="&lt;font style=&quot;font-size: 16px;&quot; face=&quot;Garamond&quot;&gt;High complexity and technical barriers in developing situational decision-support systems within a well-defined domain&lt;/font&gt;" style="rounded=0;whiteSpace=wrap;html=1;fillColor=#f5f5f5;strokeColor=#666666;fontColor=#333333;" parent="1" vertex="1">
          <mxGeometry x="205" y="50" width="490" height="60" as="geometry" />
        </mxCell>
        <mxCell id="dHwiDsLNK_CMpNOSO1Pw-30" value="&lt;span style=&quot;font-family: Garamond; font-size: 16px;&quot;&gt;Misinformed situational responses&lt;/span&gt;" style="rounded=0;whiteSpace=wrap;html=1;fillColor=#f8cecc;strokeColor=#b85450;" parent="1" vertex="1">
          <mxGeometry x="692" y="-120" width="166" height="50" as="geometry" />
        </mxCell>
        <mxCell id="dHwiDsLNK_CMpNOSO1Pw-48" style="edgeStyle=orthogonalEdgeStyle;rounded=0;orthogonalLoop=1;jettySize=auto;html=1;exitX=0.5;exitY=0;exitDx=0;exitDy=0;entryX=0.5;entryY=1;entryDx=0;entryDy=0;fillColor=#f8cecc;strokeColor=#b85450;" parent="1" source="dHwiDsLNK_CMpNOSO1Pw-32" target="dHwiDsLNK_CMpNOSO1Pw-33" edge="1">
          <mxGeometry relative="1" as="geometry" />
        </mxCell>
        <mxCell id="dHwiDsLNK_CMpNOSO1Pw-32" value="&lt;font face=&quot;Garamond&quot;&gt;&lt;span style=&quot;font-size: 16px;&quot;&gt;Situational tools with trivial logic&amp;nbsp;&lt;/span&gt;&lt;/font&gt;" style="rounded=0;whiteSpace=wrap;html=1;fillColor=#f8cecc;strokeColor=#b85450;" parent="1" vertex="1">
          <mxGeometry x="36" y="-120" width="166" height="50" as="geometry" />
        </mxCell>
        <mxCell id="dHwiDsLNK_CMpNOSO1Pw-33" value="&lt;font face=&quot;Garamond&quot;&gt;&lt;span style=&quot;font-size: 16px;&quot;&gt;Complex situational requirements can not be addressed&lt;/span&gt;&lt;/font&gt;" style="rounded=0;whiteSpace=wrap;html=1;fillColor=#f8cecc;strokeColor=#b85450;" parent="1" vertex="1">
          <mxGeometry x="36" y="-255" width="166" height="60" as="geometry" />
        </mxCell>
        <mxCell id="dHwiDsLNK_CMpNOSO1Pw-34" value="&lt;font face=&quot;Garamond&quot;&gt;&lt;span style=&quot;font-size: 16px;&quot;&gt;Absence of standardize domain models proper for situational decision making&lt;/span&gt;&lt;/font&gt;" style="rounded=0;whiteSpace=wrap;html=1;fillColor=#dae8fc;strokeColor=#6c8ebf;" parent="1" vertex="1">
          <mxGeometry x="460" y="365" width="190" height="70" as="geometry" />
        </mxCell>
        <mxCell id="dHwiDsLNK_CMpNOSO1Pw-35" value="&lt;font face=&quot;Garamond&quot;&gt;&lt;span style=&quot;font-size: 16px;&quot;&gt;Inaccurate and unfamiliar situations tools&lt;/span&gt;&lt;/font&gt;" style="rounded=0;whiteSpace=wrap;html=1;fillColor=#f8cecc;strokeColor=#b85450;" parent="1" vertex="1">
          <mxGeometry x="367" y="-120" width="166" height="50" as="geometry" />
        </mxCell>
        <mxCell id="dHwiDsLNK_CMpNOSO1Pw-36" value="&lt;font style=&quot;font-size: 16px;&quot; face=&quot;Garamond&quot;&gt;Delayed adoption of decision-making tools&lt;/font&gt;" style="rounded=0;whiteSpace=wrap;html=1;fillColor=#f8cecc;strokeColor=#b85450;" parent="1" vertex="1">
          <mxGeometry x="367" y="-250" width="166" height="50" as="geometry" />
        </mxCell>
        <mxCell id="dHwiDsLNK_CMpNOSO1Pw-42" style="edgeStyle=orthogonalEdgeStyle;rounded=0;orthogonalLoop=1;jettySize=auto;html=1;entryX=0.937;entryY=0.976;entryDx=0;entryDy=0;fillColor=#dae8fc;strokeColor=#6c8ebf;entryPerimeter=0;" parent="1" source="dHwiDsLNK_CMpNOSO1Pw-34" target="dHwiDsLNK_CMpNOSO1Pw-7" edge="1">
          <mxGeometry relative="1" as="geometry" />
        </mxCell>
        <mxCell id="dHwiDsLNK_CMpNOSO1Pw-53" style="edgeStyle=orthogonalEdgeStyle;rounded=0;orthogonalLoop=1;jettySize=auto;html=1;entryX=0.5;entryY=1;entryDx=0;entryDy=0;fillColor=#dae8fc;strokeColor=#6c8ebf;" parent="1" source="dHwiDsLNK_CMpNOSO1Pw-43" target="dHwiDsLNK_CMpNOSO1Pw-24" edge="1">
          <mxGeometry relative="1" as="geometry" />
        </mxCell>
        <mxCell id="dHwiDsLNK_CMpNOSO1Pw-43" value="Gap between domain experts requirement and final solutiona classes" style="rounded=0;whiteSpace=wrap;html=1;fillColor=#dae8fc;strokeColor=#6c8ebf;fontFamily=Garamond;fontSize=16;" parent="1" vertex="1">
          <mxGeometry x="34" y="367.5" width="170" height="65" as="geometry" />
        </mxCell>
        <mxCell id="dHwiDsLNK_CMpNOSO1Pw-44" style="edgeStyle=orthogonalEdgeStyle;rounded=0;orthogonalLoop=1;jettySize=auto;html=1;exitX=0.5;exitY=0;exitDx=0;exitDy=0;entryX=0.5;entryY=1;entryDx=0;entryDy=0;fillColor=#dae8fc;strokeColor=#6c8ebf;" parent="1" source="dHwiDsLNK_CMpNOSO1Pw-5" target="dHwiDsLNK_CMpNOSO1Pw-43" edge="1">
          <mxGeometry relative="1" as="geometry">
            <mxPoint x="54" y="450" as="targetPoint" />
          </mxGeometry>
        </mxCell>
        <mxCell id="dHwiDsLNK_CMpNOSO1Pw-47" style="edgeStyle=orthogonalEdgeStyle;rounded=0;orthogonalLoop=1;jettySize=auto;html=1;exitX=0.25;exitY=0;exitDx=0;exitDy=0;entryX=0.542;entryY=0.96;entryDx=0;entryDy=0;entryPerimeter=0;fillColor=#f8cecc;strokeColor=#b85450;" parent="1" source="dHwiDsLNK_CMpNOSO1Pw-26" target="dHwiDsLNK_CMpNOSO1Pw-32" edge="1">
          <mxGeometry relative="1" as="geometry" />
        </mxCell>
        <mxCell id="dHwiDsLNK_CMpNOSO1Pw-51" style="edgeStyle=orthogonalEdgeStyle;rounded=0;orthogonalLoop=1;jettySize=auto;html=1;entryX=0.5;entryY=1;entryDx=0;entryDy=0;fillColor=#f8cecc;strokeColor=#b85450;" parent="1" source="dHwiDsLNK_CMpNOSO1Pw-35" target="dHwiDsLNK_CMpNOSO1Pw-36" edge="1">
          <mxGeometry relative="1" as="geometry" />
        </mxCell>
      </root>
    </mxGraphModel>
  </diagram>
</mxfile>
